<mxfile host="app.diagrams.net" modified="2022-02-01T13:22:04.796Z" agent="5.0 (X11)" etag="W42nnR5Hq77QRvA_eOMZ" version="16.4.11" type="github">
  <diagram id="w_0Kd4TP8-2ugyQYXVbY" name="Page-1">
    <mxGraphModel dx="1030" dy="584" grid="1" gridSize="10" guides="1" tooltips="1" connect="1" arrows="1" fold="1" page="1" pageScale="1" pageWidth="1169" pageHeight="827" math="0" shadow="0">
      <root>
        <mxCell id="0" />
        <mxCell id="1" parent="0" />
        <mxCell id="bAt_LqIN8Pzx5NF2WYkV-1" value="&lt;span style=&quot;left: 196.444px ; top: 172.887px ; font-size: 9.6px ; font-family: sans-serif ; transform: scalex(0.793482)&quot; dir=&quot;ltr&quot;&gt;Fonction : traiter les message en provenance du moniteur&lt;/span&gt;&lt;br&gt;&lt;span style=&quot;left: 196.444px ; top: 195.607px ; font-size: 9.6px ; font-family: sans-serif&quot; dir=&quot;ltr&quot;&gt;a&lt;/span&gt;&lt;span style=&quot;left: 201.129px ; top: 195.607px ; font-size: 9.6px ; font-family: sans-serif ; transform: scalex(1.00673)&quot; dir=&quot;ltr&quot;&gt;tt&lt;/span&gt;&lt;span style=&quot;left: 208.617px ; top: 195.607px ; font-size: 9.6px ; font-family: sans-serif ; transform: scalex(0.76572)&quot; dir=&quot;ltr&quot;&gt;endre ‘connexion établie’&lt;/span&gt;&lt;br&gt;&lt;span style=&quot;left: 196.444px ; top: 207.127px ; font-size: 9.6px ; font-family: sans-serif ; transform: scalex(0.832919)&quot; dir=&quot;ltr&quot;&gt;tant que&lt;/span&gt;&lt;br&gt;&lt;span style=&quot;left: 196.444px ; top: 218.647px ; font-size: 9.6px ; font-family: sans-serif&quot; dir=&quot;ltr&quot;&gt;a&lt;/span&gt;&lt;span style=&quot;left: 201.129px ; top: 218.647px ; font-size: 9.6px ; font-family: sans-serif ; transform: scalex(1.00673)&quot; dir=&quot;ltr&quot;&gt;tt&lt;/span&gt;&lt;span style=&quot;left: 208.617px ; top: 218.647px ; font-size: 9.6px ; font-family: sans-serif ; transform: scalex(0.813278)&quot; dir=&quot;ltr&quot;&gt;endre message de inputStream /*Read*/&lt;/span&gt;&lt;br&gt;&lt;span style=&quot;left: 196.444px ; top: 230.167px ; font-size: 9.6px ; font-family: sans-serif ; transform: scalex(0.82908)&quot; dir=&quot;ltr&quot;&gt;// traiter le message&lt;/span&gt;&lt;br&gt;&lt;span style=&quot;left: 196.444px ; top: 241.687px ; font-size: 9.6px ; font-family: sans-serif ; transform: scalex(0.798909)&quot; dir=&quot;ltr&quot;&gt;si message est ‘ouvrir communication robot’&lt;/span&gt;&lt;br&gt;&lt;span style=&quot;left: 199.938px ; top: 253.207px ; font-size: 9.6px ; font-family: sans-serif ; transform: scalex(0.793406)&quot; dir=&quot;ltr&quot;&gt;produire ‘ouvrir comRobot’&lt;/span&gt;&lt;br&gt;&lt;span style=&quot;left: 196.444px ; top: 264.727px ; font-size: 9.6px ; font-family: sans-serif ; transform: scalex(0.801412)&quot; dir=&quot;ltr&quot;&gt;sinon si message est ‘démarrer robot sans wd’&lt;/span&gt;&lt;br&gt;&lt;span style=&quot;left: 199.938px ; top: 276.247px ; font-size: 9.6px ; font-family: sans-serif ; transform: scalex(0.807204)&quot; dir=&quot;ltr&quot;&gt;produit ‘démarrer robot sans wd&lt;/span&gt;&lt;span style=&quot;left: 325.324px ; top: 276.247px ; font-size: 9.6px ; font-family: sans-serif&quot; dir=&quot;ltr&quot;&gt; &lt;/span&gt;&lt;span style=&quot;left: 327.071px ; top: 276.247px ; font-size: 9.6px ; font-family: sans-serif&quot; dir=&quot;ltr&quot;&gt;‘&lt;/span&gt;&lt;br&gt;&lt;span style=&quot;left: 196.444px ; top: 287.767px ; font-size: 9.6px ; font-family: sans-serif ; transform: scalex(0.789862)&quot; dir=&quot;ltr&quot;&gt;sinon si message est un ordre de mouvement&lt;/span&gt;&lt;br&gt;&lt;span style=&quot;left: 199.938px ; top: 299.287px ; font-size: 9.6px ; font-family: sans-serif ; transform: scalex(0.770774)&quot; dir=&quot;ltr&quot;&gt;mouvement = mouvement du message&lt;/span&gt;&lt;br&gt;&lt;span style=&quot;left: 196.444px ; top: 310.807px ; font-size: 9.6px ; font-family: sans-serif ; transform: scalex(0.807669)&quot; dir=&quot;ltr&quot;&gt;fi&lt;/span&gt;&lt;span style=&quot;left: 201.33px ; top: 310.807px ; font-size: 9.6px ; font-family: sans-serif ; transform: scalex(0.831535)&quot; dir=&quot;ltr&quot;&gt;nsi&lt;/span&gt;&lt;br&gt;&lt;span style=&quot;left: 196.444px ; top: 322.327px ; font-size: 9.6px ; font-family: sans-serif ; transform: scalex(0.807669)&quot; dir=&quot;ltr&quot;&gt;fi&lt;/span&gt;&lt;span style=&quot;left: 201.33px ; top: 322.327px ; font-size: 9.6px ; font-family: sans-serif ; transform: scalex(0.806593)&quot; dir=&quot;ltr&quot;&gt;n tant que&lt;/span&gt;" style="whiteSpace=wrap;html=1;shape=mxgraph.basic.document;fillColor=#fff2cc;strokeColor=#d6b656;" vertex="1" parent="1">
          <mxGeometry x="320" y="40" width="320" height="210" as="geometry" />
        </mxCell>
        <mxCell id="bAt_LqIN8Pzx5NF2WYkV-3" value="Déplacer robot" style="rounded=0;whiteSpace=wrap;html=1;" vertex="1" parent="1">
          <mxGeometry x="190" y="290" width="120" height="60" as="geometry" />
        </mxCell>
        <mxCell id="bAt_LqIN8Pzx5NF2WYkV-4" value="Traiter les messages en provenance du moniteur" style="rounded=0;whiteSpace=wrap;html=1;" vertex="1" parent="1">
          <mxGeometry x="130" y="170" width="120" height="60" as="geometry" />
        </mxCell>
        <mxCell id="bAt_LqIN8Pzx5NF2WYkV-5" value="&lt;span style=&quot;left: 693.878px ; top: 433.38px ; font-size: 9.6px ; font-family: sans-serif ; transform: scalex(0.847417)&quot; dir=&quot;ltr&quot;&gt;Me&lt;/span&gt;&lt;span style=&quot;left: 705.897px ; top: 433.38px ; font-size: 9.6px ; font-family: sans-serif ; transform: scalex(1.00673)&quot; dir=&quot;ltr&quot;&gt;tt&lt;/span&gt;&lt;span style=&quot;left: 713.481px ; top: 433.38px ; font-size: 9.6px ; font-family: sans-serif ; transform: scalex(0.758073)&quot; dir=&quot;ltr&quot;&gt;re en place la&lt;/span&gt;&lt;br&gt;&lt;span style=&quot;left: 689.102px ; top: 444.9px ; font-size: 9.6px ; font-family: sans-serif ; transform: scalex(0.785315)&quot; dir=&quot;ltr&quot;&gt;communication avec&lt;/span&gt;&lt;br&gt;&lt;span style=&quot;left: 713.212px ; top: 456.42px ; font-size: 9.6px ; font-family: sans-serif ; transform: scalex(0.820332)&quot; dir=&quot;ltr&quot;&gt;le robot&lt;/span&gt;" style="rounded=0;whiteSpace=wrap;html=1;" vertex="1" parent="1">
          <mxGeometry x="390" y="290" width="120" height="60" as="geometry" />
        </mxCell>
        <mxCell id="bAt_LqIN8Pzx5NF2WYkV-6" value="Démarrer&lt;br&gt;robot sans wd" style="rounded=0;whiteSpace=wrap;html=1;" vertex="1" parent="1">
          <mxGeometry x="270" y="360" width="120" height="60" as="geometry" />
        </mxCell>
        <mxCell id="bAt_LqIN8Pzx5NF2WYkV-7" value="&lt;span style=&quot;left: 630.396px ; top: 625.576px ; font-size: 9.6px ; font-family: sans-serif ; transform: scalex(0.787167)&quot; dir=&quot;ltr&quot;&gt;Envoyer&lt;/span&gt;&lt;br&gt;&lt;span style=&quot;left: 622.836px ; top: 637.096px ; font-size: 9.6px ; font-family: sans-serif ; transform: scalex(0.791339)&quot; dir=&quot;ltr&quot;&gt;message au&lt;/span&gt;&lt;br&gt;&lt;span style=&quot;left: 628.087px ; top: 648.616px ; font-size: 9.6px ; font-family: sans-serif ; transform: scalex(0.812995)&quot; dir=&quot;ltr&quot;&gt;moniteur&lt;/span&gt;" style="rounded=0;whiteSpace=wrap;html=1;" vertex="1" parent="1">
          <mxGeometry x="410" y="360" width="120" height="60" as="geometry" />
        </mxCell>
        <mxCell id="bAt_LqIN8Pzx5NF2WYkV-8" value="&lt;span style=&quot;left: 313.501px ; top: 520.768px ; font-size: 9.6px ; font-family: sans-serif ; transform: scalex(0.819529)&quot; dir=&quot;ltr&quot;&gt;Etablissement de la&lt;/span&gt;&lt;br&gt;&lt;span style=&quot;left: 300.858px ; top: 532.288px ; font-size: 9.6px ; font-family: sans-serif ; transform: scalex(0.771453)&quot; dir=&quot;ltr&quot;&gt;connexion avec le moniteur&lt;/span&gt;" style="rounded=0;whiteSpace=wrap;html=1;" vertex="1" parent="1">
          <mxGeometry x="580" y="360" width="120" height="60" as="geometry" />
        </mxCell>
        <mxCell id="bAt_LqIN8Pzx5NF2WYkV-9" value="&lt;span style=&quot;left: 273.281px ; top: 441.463px ; font-size: 9.6px ; font-family: sans-serif ; transform: scalex(0.805327)&quot; dir=&quot;ltr&quot;&gt;Démarrer serveur&lt;/span&gt;" style="rounded=0;whiteSpace=wrap;html=1;" vertex="1" parent="1">
          <mxGeometry x="60" y="270" width="120" height="60" as="geometry" />
        </mxCell>
        <mxCell id="bAt_LqIN8Pzx5NF2WYkV-10" value="&lt;span style=&quot;left: 463.373px ; top: 187.964px ; font-size: 9.6px ; font-family: sans-serif ; transform: scalex(0.803908)&quot; dir=&quot;ltr&quot;&gt;Fonction : déplacer robot&lt;/span&gt;&lt;br&gt;&lt;span style=&quot;left: 463.373px ; top: 210.684px ; font-size: 9.6px ; font-family: sans-serif ; transform: scalex(0.825958)&quot; dir=&quot;ltr&quot;&gt;tant que périodiquement (100 ms)&lt;/span&gt;&lt;br&gt;&lt;span style=&quot;left: 466.868px ; top: 222.204px ; font-size: 9.6px ; font-family: sans-serif ; transform: scalex(0.816027)&quot; dir=&quot;ltr&quot;&gt;si robot démarré est vrai&lt;/span&gt;&lt;br&gt;&lt;span style=&quot;left: 470.362px ; top: 233.724px ; font-size: 9.6px ; font-family: sans-serif ; transform: scalex(0.778863)&quot; dir=&quot;ltr&quot;&gt;lire mouvement&lt;/span&gt;&lt;br&gt;&lt;span style=&quot;left: 470.362px ; top: 245.244px ; font-size: 9.6px ; font-family: sans-serif ; transform: scalex(0.781215)&quot; dir=&quot;ltr&quot;&gt;envoyer ordre de mouvement au robot&lt;/span&gt;&lt;br&gt;&lt;span style=&quot;left: 466.868px ; top: 256.764px ; font-size: 9.6px ; font-family: sans-serif ; transform: scalex(0.807669)&quot; dir=&quot;ltr&quot;&gt;fi&lt;/span&gt;&lt;span style=&quot;left: 471.754px ; top: 256.764px ; font-size: 9.6px ; font-family: sans-serif ; transform: scalex(0.784571)&quot; dir=&quot;ltr&quot;&gt;n si&lt;/span&gt;&lt;br&gt;&lt;span style=&quot;left: 463.373px ; top: 268.284px ; font-size: 9.6px ; font-family: sans-serif ; transform: scalex(0.807669)&quot; dir=&quot;ltr&quot;&gt;fi&lt;/span&gt;&lt;span style=&quot;left: 468.26px ; top: 268.284px ; font-size: 9.6px ; font-family: sans-serif ; transform: scalex(0.806593)&quot; dir=&quot;ltr&quot;&gt;n tant que&lt;/span&gt;" style="whiteSpace=wrap;html=1;shape=mxgraph.basic.document;fillColor=#fff2cc;strokeColor=#d6b656;" vertex="1" parent="1">
          <mxGeometry x="670" y="80" width="240" height="120" as="geometry" />
        </mxCell>
        <mxCell id="bAt_LqIN8Pzx5NF2WYkV-11" value="&lt;span style=&quot;left: 649.62px ; top: 306.388px ; font-size: 9.6px ; font-family: sans-serif ; transform: scalex(0.799652)&quot; dir=&quot;ltr&quot;&gt;Fonction : Me&lt;/span&gt;&lt;span style=&quot;left: 701.037px ; top: 306.388px ; font-size: 9.6px ; font-family: sans-serif ; transform: scalex(1.00673)&quot; dir=&quot;ltr&quot;&gt;tt&lt;/span&gt;&lt;span style=&quot;left: 708.621px ; top: 306.388px ; font-size: 9.6px ; font-family: sans-serif ; transform: scalex(0.776779)&quot; dir=&quot;ltr&quot;&gt;re en place la communication avec le robot&lt;/span&gt;&lt;br&gt;&lt;span style=&quot;left: 653.114px ; top: 329.108px ; font-size: 9.6px ; font-family: sans-serif&quot; dir=&quot;ltr&quot;&gt;a&lt;/span&gt;&lt;span style=&quot;left: 657.799px ; top: 329.108px ; font-size: 9.6px ; font-family: sans-serif ; transform: scalex(1.00673)&quot; dir=&quot;ltr&quot;&gt;tt&lt;/span&gt;&lt;span style=&quot;left: 665.287px ; top: 329.108px ; font-size: 9.6px ; font-family: sans-serif ; transform: scalex(0.788041)&quot; dir=&quot;ltr&quot;&gt;endre ‘ouvrir comRobot’&lt;/span&gt;&lt;br&gt;&lt;span style=&quot;left: 653.114px ; top: 340.628px ; font-size: 9.6px ; font-family: sans-serif ; transform: scalex(0.758557)&quot; dir=&quot;ltr&quot;&gt;me&lt;/span&gt;&lt;span style=&quot;left: 664.682px ; top: 340.628px ; font-size: 9.6px ; font-family: sans-serif ; transform: scalex(1.00673)&quot; dir=&quot;ltr&quot;&gt;tt&lt;/span&gt;&lt;span style=&quot;left: 672.266px ; top: 340.628px ; font-size: 9.6px ; font-family: sans-serif ; transform: scalex(0.776779)&quot; dir=&quot;ltr&quot;&gt;re en place la communication avec le robot&lt;/span&gt;&lt;br&gt;&lt;span style=&quot;left: 653.114px ; top: 352.148px ; font-size: 9.6px ; font-family: sans-serif ; transform: scalex(0.798061)&quot; dir=&quot;ltr&quot;&gt;si la communication est ok&lt;/span&gt;&lt;br&gt;&lt;span style=&quot;left: 656.609px ; top: 363.668px ; font-size: 9.6px ; font-family: sans-serif ; transform: scalex(0.831827)&quot; dir=&quot;ltr&quot;&gt;poster messageToMon ACK&lt;/span&gt;&lt;br&gt;&lt;span style=&quot;left: 653.114px ; top: 375.188px ; font-size: 9.6px ; font-family: sans-serif ; transform: scalex(0.804607)&quot; dir=&quot;ltr&quot;&gt;sinon&lt;/span&gt;&lt;br&gt;&lt;span style=&quot;left: 656.609px ; top: 386.708px ; font-size: 9.6px ; font-family: sans-serif ; transform: scalex(0.829472)&quot; dir=&quot;ltr&quot;&gt;poster messageToMon NAC&lt;/span&gt;&lt;br&gt;&lt;span style=&quot;left: 649.62px ; top: 398.228px ; font-size: 9.6px ; font-family: sans-serif ; transform: scalex(0.807669)&quot; dir=&quot;ltr&quot;&gt;fi&lt;/span&gt;&lt;span style=&quot;left: 654.506px ; top: 398.228px ; font-size: 9.6px ; font-family: sans-serif ; transform: scalex(0.806593)&quot; dir=&quot;ltr&quot;&gt;n tant que&lt;/span&gt;" style="whiteSpace=wrap;html=1;shape=mxgraph.basic.document;fillColor=#fff2cc;strokeColor=#d6b656;" vertex="1" parent="1">
          <mxGeometry x="720" y="250" width="240" height="160" as="geometry" />
        </mxCell>
        <mxCell id="bAt_LqIN8Pzx5NF2WYkV-12" value="&lt;span style=&quot;left: 157.643px ; top: 369.382px ; font-size: 9.6px ; font-family: sans-serif ; transform: scalex(0.79816)&quot; dir=&quot;ltr&quot;&gt;Fonction : démarrer serveur&lt;/span&gt;&lt;br&gt;&lt;span style=&quot;left: 157.643px ; top: 392.102px ; font-size: 9.6px ; font-family: sans-serif ; transform: scalex(0.793455)&quot; dir=&quot;ltr&quot;&gt;lancer serveur&lt;/span&gt;&lt;br&gt;&lt;span style=&quot;left: 157.643px ; top: 403.622px ; font-size: 9.6px ; font-family: sans-serif ; transform: scalex(0.780117)&quot; dir=&quot;ltr&quot;&gt;si échec a&lt;/span&gt;&lt;span style=&quot;left: 195.141px ; top: 403.622px ; font-size: 9.6px ; font-family: sans-serif ; transform: scalex(0.791095)&quot; dir=&quot;ltr&quot;&gt;ffi&lt;/span&gt;&lt;span style=&quot;left: 202.485px ; top: 403.622px ; font-size: 9.6px ; font-family: sans-serif ; transform: scalex(0.792606)&quot; dir=&quot;ltr&quot;&gt;cher un message et stopper le programme&lt;/span&gt;&lt;br&gt;&lt;span style=&quot;left: 157.643px ; top: 415.142px ; font-size: 9.6px ; font-family: sans-serif ; transform: scalex(0.783171)&quot; dir=&quot;ltr&quot;&gt;sinon produire ‘serveur démarré’&lt;/span&gt;" style="whiteSpace=wrap;html=1;shape=mxgraph.basic.document;fillColor=#fff2cc;strokeColor=#d6b656;" vertex="1" parent="1">
          <mxGeometry x="120" y="30" width="240" height="120" as="geometry" />
        </mxCell>
        <mxCell id="bAt_LqIN8Pzx5NF2WYkV-13" value="&lt;span style=&quot;left: 179.916px ; top: 568.941px ; font-size: 9.6px ; font-family: sans-serif ; transform: scalex(0.795512)&quot; dir=&quot;ltr&quot;&gt;Fonction : connecter au moniteur&lt;/span&gt;&lt;br&gt;&lt;span style=&quot;left: 179.916px ; top: 591.661px ; font-size: 9.6px ; font-family: sans-serif&quot; dir=&quot;ltr&quot;&gt;a&lt;/span&gt;&lt;span style=&quot;left: 184.6px ; top: 591.661px ; font-size: 9.6px ; font-family: sans-serif ; transform: scalex(1.00673)&quot; dir=&quot;ltr&quot;&gt;tt&lt;/span&gt;&lt;span style=&quot;left: 192.088px ; top: 591.661px ; font-size: 9.6px ; font-family: sans-serif ; transform: scalex(0.777518)&quot; dir=&quot;ltr&quot;&gt;endre ‘serveur démarré’&lt;/span&gt;&lt;br&gt;&lt;span style=&quot;left: 179.916px ; top: 603.181px ; font-size: 9.6px ; font-family: sans-serif ; transform: scalex(0.817276)&quot; dir=&quot;ltr&quot;&gt;appeler AcceptClient et a&lt;/span&gt;&lt;span style=&quot;left: 279.324px ; top: 603.181px ; font-size: 9.6px ; font-family: sans-serif ; transform: scalex(1.00673)&quot; dir=&quot;ltr&quot;&gt;tt&lt;/span&gt;&lt;span style=&quot;left: 286.812px ; top: 603.181px ; font-size: 9.6px ; font-family: sans-serif ; transform: scalex(0.788695)&quot; dir=&quot;ltr&quot;&gt;endre ‘ouvrir socket’&lt;/span&gt;&lt;br&gt;&lt;span style=&quot;left: 179.916px ; top: 614.701px ; font-size: 9.6px ; font-family: sans-serif ; transform: scalex(0.772047)&quot; dir=&quot;ltr&quot;&gt;si ok produire ‘connexion établie&lt;/span&gt;" style="whiteSpace=wrap;html=1;shape=mxgraph.basic.document;fillColor=#fff2cc;strokeColor=#d6b656;" vertex="1" parent="1">
          <mxGeometry x="140" y="160" width="200" height="100" as="geometry" />
        </mxCell>
        <mxCell id="bAt_LqIN8Pzx5NF2WYkV-14" value="&lt;span style=&quot;left: 343.228px ; top: 650.578px ; font-size: 9.6px ; font-family: sans-serif ; transform: scalex(0.804795)&quot; dir=&quot;ltr&quot;&gt;Fonction : démarrer robot sans wd&lt;/span&gt;&lt;br&gt;&lt;span style=&quot;left: 343.228px ; top: 673.298px ; font-size: 9.6px ; font-family: sans-serif&quot; dir=&quot;ltr&quot;&gt;a&lt;/span&gt;&lt;span style=&quot;left: 347.913px ; top: 673.298px ; font-size: 9.6px ; font-family: sans-serif ; transform: scalex(1.00673)&quot; dir=&quot;ltr&quot;&gt;tt&lt;/span&gt;&lt;span style=&quot;left: 355.401px ; top: 673.298px ; font-size: 9.6px ; font-family: sans-serif ; transform: scalex(0.791652)&quot; dir=&quot;ltr&quot;&gt;endre ‘démarrer robot sans wd’&lt;/span&gt;&lt;br&gt;&lt;span style=&quot;left: 343.228px ; top: 684.818px ; font-size: 9.6px ; font-family: sans-serif ; transform: scalex(0.790552)&quot; dir=&quot;ltr&quot;&gt;envoyer ordre de démarrer sans wd au robot&lt;/span&gt;&lt;br&gt;&lt;span style=&quot;left: 343.228px ; top: 696.338px ; font-size: 9.6px ; font-family: sans-serif ; transform: scalex(0.802819)&quot; dir=&quot;ltr&quot;&gt;si l’ordre est ok&lt;/span&gt;&lt;br&gt;&lt;span style=&quot;left: 346.722px ; top: 707.858px ; font-size: 9.6px ; font-family: sans-serif ; transform: scalex(0.782416)&quot; dir=&quot;ltr&quot;&gt;robot démarré := vrai&lt;/span&gt;&lt;br&gt;&lt;span style=&quot;left: 346.722px ; top: 719.378px ; font-size: 9.6px ; font-family: sans-serif ; transform: scalex(0.831827)&quot; dir=&quot;ltr&quot;&gt;poster messageToMon ACK&lt;/span&gt;&lt;br&gt;&lt;span style=&quot;left: 343.228px ; top: 730.898px ; font-size: 9.6px ; font-family: sans-serif ; transform: scalex(0.804607)&quot; dir=&quot;ltr&quot;&gt;sinon&lt;/span&gt;&lt;br&gt;&lt;span style=&quot;left: 346.722px ; top: 742.418px ; font-size: 9.6px ; font-family: sans-serif ; transform: scalex(0.829472)&quot; dir=&quot;ltr&quot;&gt;poster messageToMon NAC&lt;/span&gt;" style="whiteSpace=wrap;html=1;shape=mxgraph.basic.document;fillColor=#fff2cc;strokeColor=#d6b656;" vertex="1" parent="1">
          <mxGeometry x="140" y="330" width="230" height="150" as="geometry" />
        </mxCell>
        <mxCell id="bAt_LqIN8Pzx5NF2WYkV-15" value="&lt;span style=&quot;left: 583.275px ; top: 682.326px ; font-size: 9.6px ; font-family: sans-serif ; transform: scalex(0.783652)&quot; dir=&quot;ltr&quot;&gt;Fonction : envoyer message au moniteur&lt;/span&gt;&lt;br&gt;&lt;span style=&quot;left: 583.275px ; top: 705.046px ; font-size: 9.6px ; font-family: sans-serif&quot; dir=&quot;ltr&quot;&gt;a&lt;/span&gt;&lt;span style=&quot;left: 587.959px ; top: 705.046px ; font-size: 9.6px ; font-family: sans-serif ; transform: scalex(1.00673)&quot; dir=&quot;ltr&quot;&gt;tt&lt;/span&gt;&lt;span style=&quot;left: 595.447px ; top: 705.046px ; font-size: 9.6px ; font-family: sans-serif ; transform: scalex(0.76572)&quot; dir=&quot;ltr&quot;&gt;endre ‘connexion établie’&lt;/span&gt;&lt;br&gt;&lt;span style=&quot;left: 583.275px ; top: 716.566px ; font-size: 9.6px ; font-family: sans-serif ; transform: scalex(0.832919)&quot; dir=&quot;ltr&quot;&gt;tant que&lt;/span&gt;&lt;br&gt;&lt;span style=&quot;left: 586.769px ; top: 728.086px ; font-size: 9.6px ; font-family: sans-serif&quot; dir=&quot;ltr&quot;&gt;a&lt;/span&gt;&lt;span style=&quot;left: 591.454px ; top: 728.086px ; font-size: 9.6px ; font-family: sans-serif ; transform: scalex(1.00673)&quot; dir=&quot;ltr&quot;&gt;tt&lt;/span&gt;&lt;span style=&quot;left: 598.942px ; top: 728.086px ; font-size: 9.6px ; font-family: sans-serif ; transform: scalex(0.809643)&quot; dir=&quot;ltr&quot;&gt;endre messageToMon&lt;/span&gt;&lt;br&gt;&lt;span style=&quot;left: 586.769px ; top: 739.606px ; font-size: 9.6px ; font-family: sans-serif ; transform: scalex(0.794381)&quot; dir=&quot;ltr&quot;&gt;envoyer le message au superviseur /*Write*/&lt;/span&gt;&lt;br&gt;&lt;span style=&quot;left: 583.275px ; top: 751.126px ; font-size: 9.6px ; font-family: sans-serif ; transform: scalex(0.807669)&quot; dir=&quot;ltr&quot;&gt;fi&lt;/span&gt;&lt;span style=&quot;left: 588.161px ; top: 751.126px ; font-size: 9.6px ; font-family: sans-serif ; transform: scalex(0.806593)&quot; dir=&quot;ltr&quot;&gt;n tant que&lt;/span&gt;" style="whiteSpace=wrap;html=1;shape=mxgraph.basic.document;fillColor=#fff2cc;strokeColor=#d6b656;" vertex="1" parent="1">
          <mxGeometry x="390" y="330" width="230" height="110" as="geometry" />
        </mxCell>
      </root>
    </mxGraphModel>
  </diagram>
</mxfile>
